:SAMPLES-PER-SECOND 30
:FULLY-SPECIFIED
:DEGREES
314
root  27.3269 38.7992 0.808523 -13.5155 76.8208 -13.611
RightUpLeg  -8.71623 -11.9573 4.50789
RightLeg  28.7205 -4.20182 -2.73304
RightFoot  -17.5554 -0.30031 -3.32523
RightToes  0.000482159 0.542163 -0.142577
Spine  26.4506 -2.18209 10.6977
Spine1  13.8062 0.845276 -2.78655
HEad  5.37888 1.02726 -6.31146
LeftShoulder1  9.61738 -14.7328 -45.9928
LeftArm  -4.63383 1.90701 -24.779
LeftForeArm  19.1977 -21.4503 -3.98931
LeftHand  -0.25398 0.0180481 5.50724
RightShoulder  5.17328 10.7131 30.43
RightArm  -3.60797 26.9635 29.1275
RightForeArm  -5.45589 22.1993 5.23538
RightHand  -1.01293 2.55054 -14.9969
LeftUpLeg  -27.0601 14.0342 0.34677
LeftLeg  6.38471 14.4919 -2.76184
LeftFoot  -0.110897 0.307472 -3.11475
LeftToes  1.06245e-005 4.65856e-005 -8.18503e-006
315
root  28.5824 38.4623 1.04618 -16.4009 75.5743 -16.3068
RightUpLeg  -7.22837 -11.0259 5.15281
RightLeg  30.8031 -4.45925 -3.11729
RightFoot  -19.4765 -0.393864 -3.65253
RightToes  0.000482159 0.542163 -0.142577
Spine  27.1571 -2.18337 11.4151
Spine1  14.94 1.40017 -3.48412
HEad  4.03324 1.27064 -6.29536
LeftShoulder1  9.75229 -14.9688 -46.0441
LeftArm  -5.06964 0.637625 -23.5021
LeftForeArm  18.2615 -20.8132 -4.1005
LeftHand  -0.25398 0.0180481 5.50724
RightShoulder  5.07725 10.9949 29.0334
RightArm  -3.73094 31.1903 29.0279
RightForeArm  -5.85059 21.54 5.3143
RightHand  -1.03717 2.52644 -15.3893
LeftUpLeg  -24.1486 6.15343 5.95137
LeftLeg  -4.79677 28.9195 -8.68019
LeftFoot  0.474578 0.278422 -2.68488
LeftToes  1.06245e-005 4.65856e-005 -8.18503e-006
316
root  29.8868 38.0217 1.29189 -20.1431 74.7861 -19.7376
RightUpLeg  -5.70391 -10.6592 5.80272
RightLeg  33.629 -4.74717 -3.65734
RightFoot  -21.958 -0.4407 -3.2359
RightToes  0.000482159 0.542163 -0.142577
Spine  27.8678 -2.27649 11.6549
Spine1  16.4544 1.57438 -3.46058
HEad  2.61292 1.70973 -6.35402
LeftShoulder1  9.77193 -15.1848 -45.5875
LeftArm  -5.8274 -1.01396 -22.8373
LeftForeArm  17.9699 -19.864 -4.25196
LeftHand  -0.25398 0.0180481 5.50724
RightShoulder  5.0173 11.2844 27.9101
RightArm  -3.7812 35.2713 28.5871
RightForeArm  -6.53673 20.4963 5.54777
RightHand  -1.06708 2.47777 -15.9158
LeftUpLeg  -24.1588 7.51035 6.15362
LeftLeg  -5.29572 31.8166 -9.34743
LeftFoot  0.874951 0.152067 -1.50919
LeftToes  1.06245e-005 4.65856e-005 -8.18503e-006
317
root  31.1421 37.6004 1.53072 -22.4823 74.5451 -22.1322
RightUpLeg  -5.77531 -10.7401 5.82024
RightLeg  38.356 -4.15416 -3.77461
RightFoot  -23.1418 -0.129591 0.311516
RightToes  0.000482159 0.542163 -0.142577
Spine  29.1227 -2.30686 10.7995
Spine1  17.5279 1.46786 -2.89086
HEad  1.05051 2.31025 -6.29724
LeftShoulder1  9.65797 -15.3201 -44.6963
LeftArm  -7.19545 -2.89148 -22.759
LeftForeArm  18.5412 -18.7826 -4.39889
LeftHand  -0.25398 0.0180481 5.50724
RightShoulder  4.93186 11.3573 27.1449
RightArm  -3.90482 39.0628 27.864
RightForeArm  -6.37439 19.2116 5.92233
RightHand  -1.03733 2.25209 -15.9136
LeftUpLeg  -25.3011 9.38972 5.68618
LeftLeg  -0.757879 32.0608 -7.6741
LeftFoot  4.94098 -0.541637 3.39899
LeftToes  1.06245e-005 4.65856e-005 -8.18503e-006
318
root  32.304 37.1947 1.72836 -22.1445 74.4445 -22.2556
RightUpLeg  -9.27345 -11.2635 4.84407
RightLeg  47.3447 -2.22185 -2.89377
RightFoot  -19.4314 0.202813 5.03847
RightToes  0.000482159 0.542163 -0.142577
Spine  31.1662 -1.96259 9.26394
Spine1  17.1591 1.19856 -1.85901
HEad  -0.733255 2.79068 -6.17181
LeftShoulder1  9.61757 -15.568 -43.8922
LeftArm  -9.08888 -5.15449 -22.5222
LeftForeArm  19.1875 -17.3694 -4.59766
LeftHand  -0.25398 0.0180481 5.50724
RightShoulder  4.84186 11.3537 26.5267
RightArm  -4.66322 42.152 27.119
RightForeArm  -5.49809 17.9674 6.32672
RightHand  -0.976206 1.90784 -15.6722
LeftUpLeg  -29.1702 15.7687 1.8619
LeftLeg  7.24423 24.6815 -3.28434
LeftFoot  10.2221 -2.02959 10.2998
LeftToes  1.06245e-005 4.65856e-005 -8.18503e-006
319
root  33.2355 36.8991 1.89189 -17.4339 75.2878 -18.4181
RightUpLeg  -16.3618 -12.2002 2.62581
RightLeg  58.9811 -0.716199 -1.79999
RightFoot  -8.90435 -0.169004 6.6334
RightToes  0.000482159 0.542163 -0.142577
Spine  34.256 -1.59148 6.94593
Spine1  16.0119 0.820813 -1.17992
HEad  -2.82722 2.60502 -6.08752
LeftShoulder1  9.76089 -16.1605 -43.1625
LeftArm  -11.541 -8.54111 -21.8709
LeftForeArm  19.5522 -14.9886 -4.97143
LeftHand  -0.25398 0.0180481 5.50724
RightShoulder  4.78757 11.5236 25.7678
RightArm  -7.02488 44.3259 26.2933
RightForeArm  -4.70118 16.7922 6.64385
RightHand  -0.98099 1.85607 -15.8491
LeftUpLeg  -35.1249 25.5646 -7.0879
LeftLeg  13.2564 11.3719 0.245899
LeftFoot  12.8927 -3.37985 15.3599
LeftToes  1.06245e-005 4.65856e-005 -8.18503e-006
